<?xml version="1.0" encoding="UTF-8" standalone="no"?>
<svg
   xmlns:dc="http://purl.org/dc/elements/1.1/"
   xmlns:cc="http://creativecommons.org/ns#"
   xmlns:rdf="http://www.w3.org/1999/02/22-rdf-syntax-ns#"
   xmlns:svg="http://www.w3.org/2000/svg"
   xmlns="http://www.w3.org/2000/svg"
   id="svg36"
   version="1.1"
   viewBox="0 0 80 16"
   height="16px"
   width="80px"
   y="0px"
   x="0px">
  <metadata
     id="metadata42">
    <rdf:RDF>
      <cc:Work
         rdf:about="">
        <dc:format>image/svg+xml</dc:format>
        <dc:type
           rdf:resource="http://purl.org/dc/dcmitype/StillImage" />
        <dc:title></dc:title>
      </cc:Work>
    </rdf:RDF>
  </metadata>
  <defs
     id="defs40" />
  <g
     id="g24"
     transform="translate(64)">
    <circle
       style="fill:#ffffff"
       id="circle20"
       r="2"
       cy="8"
       cx="6"
       data-color="color-2" />
    <path
       style="fill:#ffffff"
       id="path22"
       d="M 10,2 H 6 C 2.7,2 0,4.7 0,8 c 0,3.3 2.7,6 6,6 h 4 c 3.3,0 6,-2.7 6,-6 0,-3.3 -2.7,-6 -6,-6 z m 0,10 H 6 C 3.8,12 2,10.2 2,8 2,5.8 3.8,4 6,4 h 4 c 2.2,0 4,1.8 4,4 0,2.2 -1.8,4 -4,4 z" />
  </g>
  <g
     transform="scale(0.66666667)"
     id="g4554"
     style="fill:#ffffff">
    <path
       d="m 3.5,18.49 6,-6.01 4,4 8.5,-9.56 -1.41,-1.41 -7.09,7.97 -4,-4 -7.5,7.51 z"
       id="path4540" />
    <path
       style="fill:none"
       d="M 0,0 H 24 V 24 H 0 Z"
       id="path4542" />
  </g>
  <g
     transform="matrix(0.66666667,0,0,0.66666667,16,-7.9999996e-8)"
     id="g4570"
     style="fill:#ffffff">
    <path
       d="M 19,9 H 15 V 3 H 9 V 9 H 5 l 7,7 z M 5,18 v 2 h 14 v -2 z"
       id="path4556" />
    <path
       style="fill:none"
       d="M 0,0 H 24 V 24 H 0 Z"
       id="path4558" />
  </g>
  <g
     transform="matrix(0.03571382,0,0,0.03571382,31.428973,-0.6379336)"
     id="g4589"
     style="clip-rule:evenodd;fill-rule:evenodd;stroke-linejoin:round;stroke-miterlimit:1.41420996">
    <g
       transform="matrix(8.545,0,0,8.545,-786.19,-2522.16)"
       id="g4576">
      <g
         id="g4574">
        <path
           d="m 104.41,321.21 c 0.014,-2.385 -1.905,-4.281 -4.29,-4.281 h -6.243 v 2.926 h 6.243 c 0.806,0 1.481,0.584 1.481,1.389 v 4.242 c 0,0.805 -0.675,1.508 -1.481,1.508 h -6.243 v 2.808 h 6.243 c 2.385,0 4.29,-1.931 4.29,-4.316 v -1.981 c 9.866,0.141 12.737,2.707 15.877,5.452 3.024,2.645 6.415,5.487 15.252,5.557 v 0.972 c 0.001,2.385 1.955,4.381 4.339,4.381 h 6.428 v -3.043 h -6.428 c -0.805,0 -1.413,-0.533 -1.413,-1.338 v -4.242 c 0,-0.805 0.608,-1.442 1.413,-1.442 h 6.428 v -2.808 h -6.428 c -2.384,0 -4.338,1.865 -4.339,4.25 v 1.005 c -8.351,-0.028 -10.723,-2.343 -13.76,-4.999 -2.592,-2.266 -5.637,-4.758 -12.346,-5.664 0.058,-0.051 0.112,-0.099 0.168,-0.151 1.292,-1.184 1.989,-2.615 2.67,-3.851 0.682,-1.236 1.323,-2.267 2.373,-2.988 0.852,-0.585 2.064,-1.021 3.926,-1.102 v 0.992 c 0.001,2.385 1.924,4.433 4.309,4.433 h 17.242 c 2.384,0 4.312,-2.048 4.312,-4.433 v -4.242 c 0,-2.385 -1.928,-4.315 -4.312,-4.315 h -17.242 c -2.385,0 -4.31,1.93 -4.309,4.315 l 0.001,0.984 c -2.248,0.09 -3.951,0.635 -5.208,1.498 -1.525,1.047 -2.366,2.477 -3.076,3.764 -0.71,1.287 -1.311,2.441 -2.219,3.273 -0.79,0.725 -1.883,1.285 -3.658,1.493 z m 18.468,-12.356 h 17.242 c 0.805,0 1.387,0.585 1.387,1.39 v 4.242 c 0,0.805 -0.582,1.39 -1.387,1.39 h -17.242 c -0.805,0 -1.499,-0.585 -1.499,-1.39 v -4.242 c 0,-0.805 0.694,-1.39 1.499,-1.39 z"
           style="fill:#ffffff;fill-rule:nonzero"
           id="path4572" />
      </g>
    </g>
  </g>
  <g
     transform="matrix(0.66666667,0,0,0.66666667,48,-8e-8)"
     id="g4607"
     style="fill:#ffffff">
    <path
       style="fill:none"
       d="M 0,0 H 24 V 24 H 0 Z"
       id="path4593" />
    <path
       d="m 19.43,12.98 c 0.04,-0.32 0.07,-0.64 0.07,-0.98 0,-0.34 -0.03,-0.66 -0.07,-0.98 l 2.11,-1.65 c 0.19,-0.15 0.24,-0.42 0.12,-0.64 l -2,-3.46 C 19.54,5.05 19.27,4.97 19.05,5.05 l -2.49,1 C 16.04,5.65 15.48,5.32 14.87,5.07 L 14.49,2.42 C 14.46,2.18 14.25,2 14,2 H 10 C 9.75,2 9.54,2.18 9.51,2.42 L 9.13,5.07 C 8.52,5.32 7.96,5.66 7.44,6.05 l -2.49,-1 C 4.72,4.96 4.46,5.05 4.34,5.27 l -2,3.46 C 2.21,8.95 2.27,9.22 2.46,9.37 l 2.11,1.65 C 4.53,11.34 4.5,11.67 4.5,12 c 0,0.33 0.03,0.66 0.07,0.98 l -2.11,1.65 c -0.19,0.15 -0.24,0.42 -0.12,0.64 l 2,3.46 c 0.12,0.22 0.39,0.3 0.61,0.22 l 2.49,-1 c 0.52,0.4 1.08,0.73 1.69,0.98 l 0.38,2.65 C 9.54,21.82 9.75,22 10,22 h 4 c 0.25,0 0.46,-0.18 0.49,-0.42 l 0.38,-2.65 c 0.61,-0.25 1.17,-0.59 1.69,-0.98 l 2.49,1 c 0.23,0.09 0.49,0 0.61,-0.22 l 2,-3.46 c 0.12,-0.22 0.07,-0.49 -0.12,-0.64 z M 12,15.5 c -1.93,0 -3.5,-1.57 -3.5,-3.5 0,-1.93 1.57,-3.5 3.5,-3.5 1.93,0 3.5,1.57 3.5,3.5 0,1.93 -1.57,3.5 -3.5,3.5 z"
       id="path4595" />
  </g>
</svg>
