<?xml version="1.0" encoding="UTF-8" standalone="no"?><!DOCTYPE svg PUBLIC "-//W3C//DTD SVG 1.1//EN" "http://www.w3.org/Graphics/SVG/1.1/DTD/svg11.dtd"><svg width="96px" height="16px" viewBox="0 0 96 16" version="1.1" xmlns="http://www.w3.org/2000/svg" xmlns:xlink="http://www.w3.org/1999/xlink" xml:space="preserve" xmlns:serif="http://www.serif.com/" style="fill-rule:evenodd;clip-rule:evenodd;stroke-linecap:round;stroke-linejoin:round;"><g id="g24"><path id="path12" d="M3.876,13.588c-0.535,0.38 -1.276,0.255 -1.656,-0.279c-0.38,-0.534 -0.255,-1.275 0.279,-1.656c0.534,-0.38 1.275,-0.255 1.656,0.279c0.38,0.535 0.255,1.276 -0.279,1.656Z" style="fill:#fff;fill-rule:nonzero;"/><path id="path15" d="M10.032,8.053c-1.252,-1.759 -3.029,-2.84 -4.737,-3.065l-0.658,1.663c1.425,0.034 2.974,0.886 4.032,2.372c0.979,1.376 1.306,2.972 1.005,4.279l1.745,-0.003c0.262,-1.64 -0.193,-3.568 -1.387,-5.246Z" style="fill:#fff;fill-rule:nonzero;"/><path id="path18" d="M6.872,10.089c-0.712,-1.001 -1.734,-1.649 -2.841,-1.908l-0.556,1.405c0.813,0.21 1.561,0.697 2.086,1.436c0.494,0.693 0.714,1.498 0.683,2.287l1.509,-0.003c0.094,-1.103 -0.188,-2.244 -0.881,-3.217Z" style="fill:#fff;fill-rule:nonzero;"/><path id="path21" d="M13.052,5.87c-1.645,-2.311 -4.017,-3.751 -6.456,-4.17l-0.623,1.576c1.975,0.186 4.11,1.466 5.616,3.583c1.495,2.1 2.009,4.516 1.557,6.436l1.738,-0.003c0.389,-2.43 -0.197,-5.124 -1.832,-7.422Z" style="fill:#fff;fill-rule:nonzero;"/></g><g id="g4554"><path id="path4540" d="M82.3,12.327l4,-4.007l2.667,2.667l5.667,-6.374l-0.94,-0.94l-4.727,5.314l-2.667,-2.667l-5,5.007l1,1Z" style="fill:#fff;fill-rule:nonzero;"/><rect id="path4542" x="0" y="0" width="16" height="16" style="fill:none;"/></g><g id="g4570"><path id="path4556" d="M28.667,6l-2.667,0l0,-4l-4,0l0,4l-2.667,0l4.667,4.667l4.667,-4.667Zm-9.334,6l0,1.333l9.334,0l0,-1.333l-9.334,0Z" style="fill:#fff;fill-rule:nonzero;"/><rect id="path4558" x="16" y="0" width="16" height="16" style="fill:none;"/></g><path id="path30" d="M35.214,7.311c0.005,-0.727 -0.581,-1.306 -1.309,-1.306l-1.905,0l0,0.893l1.905,0c0.246,0 0.452,0.178 0.452,0.424l0,1.294c0,0.246 -0.206,0.46 -0.452,0.46l-1.905,0l0,0.857l1.905,0c0.728,0 1.309,-0.589 1.309,-1.317l0,-0.604c3.011,0.043 3.887,0.826 4.846,1.664c0.923,0.807 1.957,1.674 4.654,1.695l0,0.297c0.001,0.728 0.597,1.337 1.324,1.337l1.962,0l0,-0.929l-1.962,0c-0.245,0 -0.431,-0.162 -0.431,-0.408l0,-1.295c0,-0.245 0.186,-0.44 0.431,-0.44l1.962,0l0,-0.857l-1.962,0c-0.727,0 -1.323,0.57 -1.324,1.297l0,0.307c-2.548,-0.008 -3.272,-0.715 -4.199,-1.525c-0.791,-0.692 -1.72,-1.452 -3.768,-1.729c0.018,-0.015 0.035,-0.03 0.052,-0.046c0.394,-0.361 0.607,-0.798 0.814,-1.175c0.209,-0.377 0.404,-0.692 0.725,-0.912c0.26,-0.179 0.629,-0.312 1.198,-0.336l0,0.302c0,0.728 0.587,1.353 1.315,1.353l5.262,0c0.727,0 1.315,-0.625 1.315,-1.353l0,-1.294c0,-0.728 -0.588,-1.317 -1.315,-1.317l-5.262,0c-0.728,0 -1.316,0.589 -1.315,1.317l0,0.3c-0.686,0.028 -1.206,0.194 -1.589,0.457c-0.466,0.32 -0.722,0.756 -0.939,1.149c-0.217,0.393 -0.4,0.745 -0.677,0.999c-0.241,0.221 -0.575,0.392 -1.117,0.455l0,-0.014Zm5.636,-3.77l5.262,0c0.246,0 0.424,0.178 0.424,0.424l0,1.294c0,0.246 -0.178,0.425 -0.424,0.425l-5.262,0c-0.245,0 -0.457,-0.179 -0.457,-0.425l0,-1.294c0,-0.246 0.212,-0.424 0.457,-0.424Z" style="fill:#fff;fill-rule:nonzero;"/><g id="g4607"><rect id="path4593" x="48" y="0" width="16" height="16" style="fill:none;"/><path id="path35" d="M76.94,8.653c0.026,-0.213 0.046,-0.426 0.046,-0.653c0,-0.227 -0.02,-0.44 -0.046,-0.653l1.406,-1.1c0.127,-0.1 0.16,-0.28 0.08,-0.427l-1.333,-2.307c-0.08,-0.146 -0.26,-0.2 -0.407,-0.146l-1.66,0.666c-0.346,-0.266 -0.72,-0.486 -1.126,-0.653l-0.254,-1.767c-0.02,-0.16 -0.16,-0.28 -0.326,-0.28l-2.667,0c-0.167,0 -0.307,0.12 -0.327,0.28l-0.253,1.767c-0.407,0.167 -0.78,0.393 -1.127,0.653l-1.66,-0.666c-0.153,-0.06 -0.326,0 -0.406,0.146l-1.334,2.307c-0.086,0.147 -0.046,0.327 0.08,0.427l1.407,1.1c-0.027,0.213 -0.047,0.433 -0.047,0.653c0,0.22 0.02,0.44 0.047,0.653l-1.407,1.1c-0.126,0.1 -0.16,0.28 -0.08,0.427l1.334,2.307c0.08,0.146 0.26,0.2 0.406,0.146l1.66,-0.666c0.347,0.266 0.72,0.486 1.127,0.653l0.253,1.767c0.02,0.16 0.16,0.28 0.327,0.28l2.667,0c0.166,0 0.306,-0.12 0.326,-0.28l0.254,-1.767c0.406,-0.167 0.78,-0.393 1.126,-0.653l1.66,0.666c0.154,0.06 0.327,0 0.407,-0.146l1.333,-2.307c0.08,-0.147 0.047,-0.327 -0.08,-0.427l-1.406,-1.1Zm-4.954,1.68c-1.286,0 -2.333,-1.046 -2.333,-2.333c0,-1.287 1.047,-2.333 2.333,-2.333c1.287,0 2.334,1.046 2.334,2.333c0,1.287 -1.047,2.333 -2.334,2.333Z" style="fill:#fff;fill-rule:nonzero;"/><path id="path39" d="M55.139,8.771c-0.416,-0.824 0.117,-1.785 0.92,-2.116c1.133,-0.469 2.386,0.258 2.784,1.365c0.52,1.438 -0.399,2.981 -1.804,3.449c-1.742,0.574 -3.591,-0.541 -4.12,-2.246c-0.635,-2.043 0.68,-4.192 2.688,-4.79c2.349,-0.695 4.799,0.824 5.456,3.134c0.754,2.65 -0.96,5.405 -3.573,6.124c-2.954,0.816 -6.009,-1.099 -6.792,-4.015c-0.874,-3.256 1.24,-6.616 4.456,-7.464c3.56,-0.937 7.221,1.381 8.126,4.895c0.395,1.535 0.253,3.183 -0.383,4.629" style="fill:none;stroke:#fff;stroke-width:1.05px;"/></g></svg>