<?xml version="1.0" encoding="UTF-8" standalone="no"?>
<!DOCTYPE svg PUBLIC "-//W3C//DTD SVG 1.1//EN" "http://www.w3.org/Graphics/SVG/1.1/DTD/svg11.dtd">
<svg width="100%" height="100%" viewBox="0 0 112 16" version="1.1" xmlns="http://www.w3.org/2000/svg" xmlns:xlink="http://www.w3.org/1999/xlink" xml:space="preserve" xmlns:serif="http://www.serif.com/" style="fill-rule:evenodd;clip-rule:evenodd;stroke-linecap:round;stroke-linejoin:round;">
    <g id="g24" transform="matrix(1,0,0,1,64,0)">
        <g id="circle20" transform="matrix(1,0,0,1,15.9862,0)">
            <circle cx="6" cy="8" r="2" style="fill:white;"/>
        </g>
        <g id="path22" transform="matrix(1,0,0,1,15.9862,0)">
            <path d="M10,2L6,2C2.7,2 0,4.7 0,8C0,11.3 2.7,14 6,14L10,14C13.3,14 16,11.3 16,8C16,4.7 13.3,2 10,2ZM10,12L6,12C3.8,12 2,10.2 2,8C2,5.8 3.8,4 6,4L10,4C12.2,4 14,5.8 14,8C14,10.2 12.2,12 10,12Z" style="fill:white;fill-rule:nonzero;"/>
        </g>
        <g id="path3812" transform="matrix(0.00983364,0.0138181,-0.0138181,0.00983364,36.7826,4.15485)">
            <path d="M414.286,396.648C414.286,435.308 382.946,466.648 344.286,466.648C305.626,466.648 274.286,435.308 274.286,396.648C274.286,357.988 305.626,326.648 344.286,326.648C382.946,326.648 414.286,357.988 414.286,396.648Z" style="fill:white;fill-rule:nonzero;"/>
        </g>
        <g id="path3814" transform="matrix(0.0141095,0.0198264,-0.0198264,0.0141095,37.9842,0.103374)">
            <path d="M357.125,75.219C268.419,75.219 189.877,108.942 141.625,160.781L181.625,222.438C216.741,175.517 282.171,143.969 357.125,143.969C426.522,143.969 487.765,171.031 524.344,212.281L565.813,153.75C517.154,105.902 441.762,75.219 357.125,75.219Z" style="fill:white;fill-rule:nonzero;"/>
        </g>
        <g id="path3822" transform="matrix(0.0141095,0.0198264,-0.0198264,0.0141095,37.9842,0.103374)">
            <path d="M350,229.5C299.543,229.5 253.483,248.281 218.438,279.188L252.219,331.281C278.625,309.046 312.734,295.625 350,295.625C384.984,295.625 417.177,307.44 442.844,327.281L478.688,276.656C444.011,247.236 399.089,229.5 350,229.5Z" style="fill:white;fill-rule:nonzero;"/>
        </g>
        <g id="path3824" transform="matrix(0.0141095,0.0198264,-0.0198264,0.0141095,42.0421,-3.26715)">
            <path d="M372.156,138.25C255.572,138.25 150.849,183.377 78.719,255.063L116.625,313.469C169.926,251.765 263.639,210.781 370.406,210.781C476.352,210.781 569.478,251.121 623,312.031L664.313,253.75C592.205,182.821 488.04,138.25 372.156,138.25Z" style="fill:white;fill-rule:nonzero;"/>
        </g>
    </g>
    <g id="g4554" transform="matrix(0.666667,0,0,0.666667,0,0)">
        <path id="path4540" d="M3.5,18.49L9.5,12.48L13.5,16.48L22,6.92L20.59,5.51L13.5,13.48L9.5,9.48L2,16.99L3.5,18.49Z" style="fill:white;fill-rule:nonzero;"/>
        <rect id="path4542" x="0" y="0" width="24" height="24" style="fill:none;"/>
    </g>
    <g id="g4570" transform="matrix(0.666667,0,0,0.666667,16,-8e-08)">
        <path id="path4556" d="M19,9L15,9L15,3L9,3L9,9L5,9L12,16L19,9ZM5,18L5,20L19,20L19,18L5,18Z" style="fill:white;fill-rule:nonzero;"/>
        <rect id="path4558" x="0" y="0" width="24" height="24" style="fill:none;"/>
    </g>
    <g id="path4572" transform="matrix(0.305175,0,0,0.305175,3.35112,-90.7139)">
        <path d="M104.41,321.21C104.424,318.825 102.505,316.929 100.12,316.929L93.877,316.929L93.877,319.855L100.12,319.855C100.926,319.855 101.601,320.439 101.601,321.244L101.601,325.486C101.601,326.291 100.926,326.994 100.12,326.994L93.877,326.994L93.877,329.802L100.12,329.802C102.505,329.802 104.41,327.871 104.41,325.486L104.41,323.505C114.276,323.646 117.147,326.212 120.287,328.957C123.311,331.602 126.702,334.444 135.539,334.514L135.539,335.486C135.54,337.871 137.494,339.867 139.878,339.867L146.306,339.867L146.306,336.824L139.878,336.824C139.073,336.824 138.465,336.291 138.465,335.486L138.465,331.244C138.465,330.439 139.073,329.802 139.878,329.802L146.306,329.802L146.306,326.994L139.878,326.994C137.494,326.994 135.54,328.859 135.539,331.244L135.539,332.249C127.188,332.221 124.816,329.906 121.779,327.25C119.187,324.984 116.142,322.492 109.433,321.586C109.491,321.535 109.545,321.487 109.601,321.435C110.893,320.251 111.59,318.82 112.271,317.584C112.953,316.348 113.594,315.317 114.644,314.596C115.496,314.011 116.708,313.575 118.57,313.494L118.57,314.486C118.571,316.871 120.494,318.919 122.879,318.919L140.121,318.919C142.505,318.919 144.433,316.871 144.433,314.486L144.433,310.244C144.433,307.859 142.505,305.929 140.121,305.929L122.879,305.929C120.494,305.929 118.569,307.859 118.57,310.244L118.571,311.228C116.323,311.318 114.62,311.863 113.363,312.726C111.838,313.773 110.997,315.203 110.287,316.49C109.577,317.777 108.976,318.931 108.068,319.763C107.278,320.488 106.185,321.048 104.41,321.256L104.41,321.21ZM122.878,308.854L140.12,308.854C140.925,308.854 141.507,309.439 141.507,310.244L141.507,314.486C141.507,315.291 140.925,315.876 140.12,315.876L122.878,315.876C122.073,315.876 121.379,315.291 121.379,314.486L121.379,310.244C121.379,309.439 122.073,308.854 122.878,308.854Z" style="fill:white;fill-rule:nonzero;"/>
    </g>
    <g id="g4607" transform="matrix(0.666667,0,0,0.666667,48,-8e-08)">
        <rect id="path4593" x="0" y="0" width="24" height="24" style="fill:none;"/>
        <g id="path4595" transform="matrix(1,0,0,1,23.9793,0)">
            <path d="M19.43,12.98C19.47,12.66 19.5,12.34 19.5,12C19.5,11.66 19.47,11.34 19.43,11.02L21.54,9.37C21.73,9.22 21.78,8.95 21.66,8.73L19.66,5.27C19.54,5.05 19.27,4.97 19.05,5.05L16.56,6.05C16.04,5.65 15.48,5.32 14.87,5.07L14.49,2.42C14.46,2.18 14.25,2 14,2L10,2C9.75,2 9.54,2.18 9.51,2.42L9.13,5.07C8.52,5.32 7.96,5.66 7.44,6.05L4.95,5.05C4.72,4.96 4.46,5.05 4.34,5.27L2.34,8.73C2.21,8.95 2.27,9.22 2.46,9.37L4.57,11.02C4.53,11.34 4.5,11.67 4.5,12C4.5,12.33 4.53,12.66 4.57,12.98L2.46,14.63C2.27,14.78 2.22,15.05 2.34,15.27L4.34,18.73C4.46,18.95 4.73,19.03 4.95,18.95L7.44,17.95C7.96,18.35 8.52,18.68 9.13,18.93L9.51,21.58C9.54,21.82 9.75,22 10,22L14,22C14.25,22 14.46,21.82 14.49,21.58L14.87,18.93C15.48,18.68 16.04,18.34 16.56,17.95L19.05,18.95C19.28,19.04 19.54,18.95 19.66,18.73L21.66,15.27C21.78,15.05 21.73,14.78 21.54,14.63L19.43,12.98ZM12,15.5C10.07,15.5 8.5,13.93 8.5,12C8.5,10.07 10.07,8.5 12,8.5C13.93,8.5 15.5,10.07 15.5,12C15.5,13.93 13.93,15.5 12,15.5Z" style="fill:white;fill-rule:nonzero;"/>
        </g>
        <g transform="matrix(1.21156,0,0,1.21172,1.38815,-1251.14)">
            <path d="M7.693,1043.39C7.178,1042.37 7.838,1041.18 8.832,1040.77C10.235,1040.19 11.786,1041.09 12.279,1042.46C12.922,1044.24 11.785,1046.15 10.045,1046.73C7.888,1047.44 5.599,1046.06 4.944,1043.95C4.158,1041.42 5.786,1038.76 8.272,1038.02C11.18,1037.16 14.214,1039.04 15.027,1041.9C15.961,1045.18 13.839,1048.59 10.604,1049.48C6.946,1050.49 3.164,1048.12 2.195,1044.51C1.112,1040.48 3.73,1036.32 7.712,1035.27C12.119,1034.11 16.652,1036.98 17.772,1041.33C18.261,1043.23 18.085,1045.27 17.298,1047.06" style="fill:none;stroke:white;stroke-width:1.3px;"/>
        </g>
    </g>
</svg>
