<?xml version="1.0" encoding="utf-8"?><!-- Uploaded to: SVG Repo, www.svgrepo.com, Generator: SVG Repo Mixer Tools -->
<svg width="800px" height="800px" viewBox="0 0 24 24" fill="none" xmlns="http://www.w3.org/2000/svg">
<path d="M1 2C1 1.44772 1.44772 1 2 1C2.55228 1 3 1.44772 3 2V20C3 20.5523 3.44771 21 4 21L22 21C22.5523 21 23 21.4477 23 22C23 22.5523 22.5523 23 22 23H3C1.89543 23 1 22.1046 1 21V2Z" fill="#0F0F0F"/>
<path d="M19.9285 5.37139C20.1336 4.85861 19.8842 4.27664 19.3714 4.07152C18.8586 3.86641 18.2766 4.11583 18.0715 4.62861L14.8224 12.7513C14.6978 13.0628 14.3078 13.1656 14.0459 12.9561L11.0811 10.5843C10.3619 10.0089 9.29874 10.2116 8.84174 11.0114L5.13176 17.5039C4.85775 17.9834 5.02434 18.5942 5.50386 18.8682C5.98338 19.1423 6.59423 18.9757 6.86824 18.4961L9.9982 13.0187C10.1505 12.7521 10.5049 12.6846 10.7447 12.8764L13.849 15.3598C14.635 15.9886 15.805 15.6802 16.1788 14.7456L19.9285 5.37139Z" fill="#0F0F0F"/>
</svg>