<?xml version="1.0" encoding="UTF-8" standalone="no"?>
<svg
   version="1.1"
   id="Capa_1"
   x="0px"
   y="0px"
   viewBox="0 0 512 512"
   style="enable-background:new 0 0 512 512;"
   xml:space="preserve"
   width="512"
   height="512"
   xmlns="http://www.w3.org/2000/svg"
   xmlns:svg="http://www.w3.org/2000/svg"><defs
   id="defs25">
	
	
		
	
		
	
		
	
		
	
		
	
		
	
		
	
		
</defs>
<path
   style="fill:none;stroke:#000000;stroke-width:30;stroke-linecap:round;stroke-linejoin:round;stroke-miterlimit:10"
   d="M 465,464 H 47 C 29.327,464 15,449.673 15,432 V 104 C 15,86.327 29.327,72 47,72 h 418 c 17.673,0 32,14.327 32,32 v 328 c 0,17.673 -14.327,32 -32,32 z"
   id="path2" /><line
   style="fill:none;stroke:#000000;stroke-width:30;stroke-linecap:round;stroke-linejoin:round;stroke-miterlimit:10"
   x1="208"
   y1="48"
   x2="208"
   y2="96"
   id="line4" /><line
   style="fill:none;stroke:#000000;stroke-width:30;stroke-linecap:round;stroke-linejoin:round;stroke-miterlimit:10"
   x1="112"
   y1="48"
   x2="112"
   y2="96"
   id="line6" /><line
   style="fill:none;stroke:#000000;stroke-width:30;stroke-linecap:round;stroke-linejoin:round;stroke-miterlimit:10"
   x1="400"
   y1="48"
   x2="400"
   y2="96"
   id="line8" /><line
   style="fill:none;stroke:#000000;stroke-width:30;stroke-linecap:round;stroke-linejoin:round;stroke-miterlimit:10"
   x1="304"
   y1="48"
   x2="304"
   y2="96"
   id="line10" /><line
   style="fill:none;stroke:#000000;stroke-width:30;stroke-linecap:round;stroke-linejoin:round;stroke-miterlimit:10"
   x1="16"
   y1="160"
   x2="496"
   y2="160"
   id="line12" /><line
   style="fill:none;stroke:#000000;stroke-width:37.8947;stroke-linecap:round;stroke-linejoin:round;stroke-miterlimit:10"
   x1="255.99997"
   y1="281.6842"
   x2="255.99997"
   y2="342.3158"
   id="line14" /><line
   style="fill:none;stroke:#000000;stroke-width:37.8947;stroke-linecap:round;stroke-linejoin:round;stroke-miterlimit:10"
   x1="225.68417"
   y1="312"
   x2="286.31577"
   y2="312"
   id="line16" /><ellipse
   style="fill:none;stroke:#000000;stroke-width:37.8947;stroke-linecap:round;stroke-linejoin:round;stroke-miterlimit:10"
   cx="255.99997"
   cy="312"
   id="circle18"
   rx="101.05262"
   ry="101.05265" />















</svg>
