<?xml version="1.0" encoding="UTF-8" standalone="no"?>
<!DOCTYPE svg PUBLIC "-//W3C//DTD SVG 1.1//EN" "http://www.w3.org/Graphics/SVG/1.1/DTD/svg11.dtd">
<svg width="100%" height="100%" viewBox="0 0 1217 1295" version="1.1" xmlns="http://www.w3.org/2000/svg" xmlns:xlink="http://www.w3.org/1999/xlink" xml:space="preserve" xmlns:serif="http://www.serif.com/" style="fill-rule:evenodd;clip-rule:evenodd;stroke-linejoin:round;stroke-miterlimit:2;">
    <g id="ArtBoard1" transform="matrix(0.903236,0,0,0.961299,0,0)">
        <rect x="0" y="0" width="1346.46" height="1346.46" style="fill:none;"/>
        <g id="path38" transform="matrix(6.39972,0,0,6.01317,-34757.3,-8546.93)">
            <path d="M5590.66,1421.96L5482.14,1421.96C5454.57,1421.96 5432.23,1446.49 5432.23,1476.77L5432.23,1589.51C5432.23,1619.79 5454.57,1644.32 5482.14,1644.32L5590.66,1644.32C5618.22,1644.32 5640.57,1619.79 5640.57,1589.51L5640.57,1476.77C5640.57,1446.49 5618.22,1421.96 5590.66,1421.96ZM5541.7,1559.18L5541.7,1523.01C5541.7,1504.78 5550.24,1495.66 5567.32,1495.66L5588.4,1495.66C5605.37,1495.66 5613.86,1504.78 5613.86,1523.01L5613.86,1548.97L5560.67,1548.97L5560.67,1560.91C5560.67,1566.22 5563.16,1568.87 5568.13,1568.87L5610.62,1568.87L5610.62,1579.77L5602.02,1586.52L5567.32,1586.52C5550.24,1586.52 5541.7,1577.41 5541.7,1559.18ZM5560.67,1532.7L5595.05,1532.7L5595.05,1521.28C5595.05,1515.85 5592.51,1513.14 5587.43,1513.14L5568.13,1513.14C5563.16,1513.14 5560.67,1515.85 5560.67,1521.28L5560.67,1532.7Z" style="fill:rgb(45,146,62);fill-rule:nonzero;"/>
        </g>
    </g>
</svg>
