<?xml version="1.0" encoding="UTF-8" standalone="no"?>
<!-- Created with Inkscape (http://www.inkscape.org/) -->

<svg
   width="17mm"
   height="17mm"
   viewBox="0 0 17 17"
   version="1.1"
   id="svg1"
   xmlns="http://www.w3.org/2000/svg"
   xmlns:svg="http://www.w3.org/2000/svg">
  <defs
     id="defs1">
    <clipPath
       clipPathUnits="userSpaceOnUse"
       id="clipPath65">
      <path
         d="M 0,0 H 304.008 V 256.008 H 0 Z"
         clip-rule="evenodd"
         id="path65" />
    </clipPath>
    <clipPath
       clipPathUnits="userSpaceOnUse"
       id="clipPath101">
      <path
         d="M 0,0 H 304.008 V 256.008 H 0 Z"
         clip-rule="evenodd"
         id="path101" />
    </clipPath>
    <clipPath
       clipPathUnits="userSpaceOnUse"
       id="clipPath103">
      <path
         d="M 0,0 H 304.008 V 256.008 H 0 Z"
         clip-rule="evenodd"
         id="path103" />
    </clipPath>
    <clipPath
       clipPathUnits="userSpaceOnUse"
       id="clipPath105">
      <path
         d="M 0,0 H 304.008 V 256.008 H 0 Z"
         clip-rule="evenodd"
         id="path105" />
    </clipPath>
    <clipPath
       clipPathUnits="userSpaceOnUse"
       id="clipPath107">
      <path
         d="M 0,0 H 304.008 V 256.008 H 0 Z"
         clip-rule="evenodd"
         id="path107" />
    </clipPath>
    <clipPath
       clipPathUnits="userSpaceOnUse"
       id="clipPath109">
      <path
         d="M 0,0 H 304.008 V 256.008 H 0 Z"
         clip-rule="evenodd"
         id="path109" />
    </clipPath>
    <clipPath
       clipPathUnits="userSpaceOnUse"
       id="clipPath111">
      <path
         d="M 0,0 H 304.008 V 256.008 H 0 Z"
         clip-rule="evenodd"
         id="path111" />
    </clipPath>
    <clipPath
       clipPathUnits="userSpaceOnUse"
       id="clipPath113">
      <path
         d="M 0,0 H 304.008 V 256.008 H 0 Z"
         clip-rule="evenodd"
         id="path113" />
    </clipPath>
    <clipPath
       clipPathUnits="userSpaceOnUse"
       id="clipPath115">
      <path
         d="M 0,0 H 304.008 V 256.008 H 0 Z"
         clip-rule="evenodd"
         id="path115" />
    </clipPath>
    <clipPath
       clipPathUnits="userSpaceOnUse"
       id="clipPath117">
      <path
         d="M 0,0 H 304.008 V 256.008 H 0 Z"
         clip-rule="evenodd"
         id="path117" />
    </clipPath>
    <clipPath
       clipPathUnits="userSpaceOnUse"
       id="clipPath119">
      <path
         d="M 0,0 H 304.008 V 256.008 H 0 Z"
         clip-rule="evenodd"
         id="path119" />
    </clipPath>
    <clipPath
       clipPathUnits="userSpaceOnUse"
       id="clipPath121">
      <path
         d="M 0,0 H 304.008 V 256.008 H 0 Z"
         clip-rule="evenodd"
         id="path121" />
    </clipPath>
    <clipPath
       clipPathUnits="userSpaceOnUse"
       id="clipPath123">
      <path
         d="M 0,0 H 304.008 V 256.008 H 0 Z"
         clip-rule="evenodd"
         id="path123" />
    </clipPath>
    <clipPath
       clipPathUnits="userSpaceOnUse"
       id="clipPath211">
      <path
         d="M 0,0 H 304.008 V 256.008 H 0 Z"
         clip-rule="evenodd"
         id="path211" />
    </clipPath>
    <clipPath
       clipPathUnits="userSpaceOnUse"
       id="clipPath213">
      <path
         d="M 93.3044,170.837 H 67.4012 c -6.579,0 -11.913,-5.487 -11.913,-12.258 v -25.214 c 0,-6.771 5.334,-12.258 11.913,-12.258 h 25.9032 c 6.5793,0 11.9136,5.487 11.9136,12.258 v 25.214 c 0,6.771 -5.3343,12.258 -11.9136,12.258 z"
         id="path213" />
    </clipPath>
    <clipPath
       clipPathUnits="userSpaceOnUse"
       id="clipPath215">
      <path
         d="M 93.3044,170.837 H 67.4012 c -6.579,0 -11.913,-5.487 -11.913,-12.258 v -25.214 c 0,-6.771 5.334,-12.258 11.913,-12.258 h 25.9032 c 6.5793,0 11.9136,5.487 11.9136,12.258 v 25.214 c 0,6.771 -5.3343,12.258 -11.9136,12.258 z"
         id="path215" />
    </clipPath>
    <clipPath
       clipPathUnits="userSpaceOnUse"
       id="clipPath217">
      <path
         d="M 93.3044,170.837 H 67.4012 c -6.579,0 -11.913,-5.487 -11.913,-12.258 v -25.214 c 0,-6.771 5.334,-12.258 11.913,-12.258 h 25.9032 c 6.5793,0 11.9136,5.487 11.9136,12.258 v 25.214 c 0,6.771 -5.3343,12.258 -11.9136,12.258 z"
         id="path217" />
    </clipPath>
    <clipPath
       clipPathUnits="userSpaceOnUse"
       id="clipPath219">
      <path
         d="M 93.3044,170.837 H 67.4012 c -6.579,0 -11.913,-5.487 -11.913,-12.258 v -25.214 c 0,-6.771 5.334,-12.258 11.913,-12.258 h 25.9032 c 6.5793,0 11.9136,5.487 11.9136,12.258 v 25.214 c 0,6.771 -5.3343,12.258 -11.9136,12.258 z"
         id="path219" />
    </clipPath>
    <clipPath
       clipPathUnits="userSpaceOnUse"
       id="clipPath221">
      <path
         d="M 93.3044,170.837 H 67.4012 c -6.579,0 -11.913,-5.487 -11.913,-12.258 v -25.214 c 0,-6.771 5.334,-12.258 11.913,-12.258 h 25.9032 c 6.5793,0 11.9136,5.487 11.9136,12.258 v 25.214 c 0,6.771 -5.3343,12.258 -11.9136,12.258 z"
         id="path221" />
    </clipPath>
    <clipPath
       clipPathUnits="userSpaceOnUse"
       id="clipPath223">
      <path
         d="M 93.3044,170.837 H 67.4012 c -6.579,0 -11.913,-5.487 -11.913,-12.258 v -25.214 c 0,-6.771 5.334,-12.258 11.913,-12.258 h 25.9032 c 6.5793,0 11.9136,5.487 11.9136,12.258 v 25.214 c 0,6.771 -5.3343,12.258 -11.9136,12.258 z"
         id="path223" />
    </clipPath>
    <clipPath
       clipPathUnits="userSpaceOnUse"
       id="clipPath225">
      <path
         d="M 93.3044,170.837 H 67.4012 c -6.579,0 -11.913,-5.487 -11.913,-12.258 v -25.214 c 0,-6.771 5.334,-12.258 11.913,-12.258 h 25.9032 c 6.5793,0 11.9136,5.487 11.9136,12.258 v 25.214 c 0,6.771 -5.3343,12.258 -11.9136,12.258 z"
         id="path225" />
    </clipPath>
    <clipPath
       clipPathUnits="userSpaceOnUse"
       id="clipPath227">
      <path
         d="M 93.3044,170.837 H 67.4012 c -6.579,0 -11.913,-5.487 -11.913,-12.258 v -25.214 c 0,-6.771 5.334,-12.258 11.913,-12.258 h 25.9032 c 6.5793,0 11.9136,5.487 11.9136,12.258 v 25.214 c 0,6.771 -5.3343,12.258 -11.9136,12.258 z"
         id="path227" />
    </clipPath>
    <clipPath
       clipPathUnits="userSpaceOnUse"
       id="clipPath229">
      <path
         d="M 93.3044,170.837 H 67.4012 c -6.579,0 -11.913,-5.487 -11.913,-12.258 v -25.214 c 0,-6.771 5.334,-12.258 11.913,-12.258 h 25.9032 c 6.5793,0 11.9136,5.487 11.9136,12.258 v 25.214 c 0,6.771 -5.3343,12.258 -11.9136,12.258 z"
         id="path229" />
    </clipPath>
    <clipPath
       clipPathUnits="userSpaceOnUse"
       id="clipPath231">
      <path
         d="M 93.3044,170.837 H 67.4012 c -6.579,0 -11.913,-5.487 -11.913,-12.258 v -25.214 c 0,-6.771 5.334,-12.258 11.913,-12.258 h 25.9032 c 6.5793,0 11.9136,5.487 11.9136,12.258 v 25.214 c 0,6.771 -5.3343,12.258 -11.9136,12.258 z"
         id="path231" />
    </clipPath>
    <clipPath
       clipPathUnits="userSpaceOnUse"
       id="clipPath233">
      <path
         d="M 93.3044,170.837 H 67.4012 c -6.579,0 -11.913,-5.487 -11.913,-12.258 v -25.214 c 0,-6.771 5.334,-12.258 11.913,-12.258 h 25.9032 c 6.5793,0 11.9136,5.487 11.9136,12.258 v 25.214 c 0,6.771 -5.3343,12.258 -11.9136,12.258 z"
         id="path233" />
    </clipPath>
    <clipPath
       clipPathUnits="userSpaceOnUse"
       id="clipPath235">
      <path
         d="M 93.3044,170.837 H 67.4012 c -6.579,0 -11.913,-5.487 -11.913,-12.258 v -25.214 c 0,-6.771 5.334,-12.258 11.913,-12.258 h 25.9032 c 6.5793,0 11.9136,5.487 11.9136,12.258 v 25.214 c 0,6.771 -5.3343,12.258 -11.9136,12.258 z"
         id="path235" />
    </clipPath>
    <clipPath
       clipPathUnits="userSpaceOnUse"
       id="clipPath237">
      <path
         d="M 93.3044,170.837 H 67.4012 c -6.579,0 -11.913,-5.487 -11.913,-12.258 v -25.214 c 0,-6.771 5.334,-12.258 11.913,-12.258 h 25.9032 c 6.5793,0 11.9136,5.487 11.9136,12.258 v 25.214 c 0,6.771 -5.3343,12.258 -11.9136,12.258 z"
         id="path237" />
    </clipPath>
    <clipPath
       clipPathUnits="userSpaceOnUse"
       id="clipPath239">
      <path
         d="M 93.3044,170.837 H 67.4012 c -6.579,0 -11.913,-5.487 -11.913,-12.258 v -25.214 c 0,-6.771 5.334,-12.258 11.913,-12.258 h 25.9032 c 6.5793,0 11.9136,5.487 11.9136,12.258 v 25.214 c 0,6.771 -5.3343,12.258 -11.9136,12.258 z"
         id="path239" />
    </clipPath>
    <clipPath
       clipPathUnits="userSpaceOnUse"
       id="clipPath241">
      <path
         d="M 93.3044,170.837 H 67.4012 c -6.579,0 -11.913,-5.487 -11.913,-12.258 v -25.214 c 0,-6.771 5.334,-12.258 11.913,-12.258 h 25.9032 c 6.5793,0 11.9136,5.487 11.9136,12.258 v 25.214 c 0,6.771 -5.3343,12.258 -11.9136,12.258 z"
         id="path241" />
    </clipPath>
    <clipPath
       clipPathUnits="userSpaceOnUse"
       id="clipPath243">
      <path
         d="M 93.3044,170.837 H 67.4012 c -6.579,0 -11.913,-5.487 -11.913,-12.258 v -25.214 c 0,-6.771 5.334,-12.258 11.913,-12.258 h 25.9032 c 6.5793,0 11.9136,5.487 11.9136,12.258 v 25.214 c 0,6.771 -5.3343,12.258 -11.9136,12.258 z"
         id="path243" />
    </clipPath>
    <clipPath
       clipPathUnits="userSpaceOnUse"
       id="clipPath245">
      <path
         d="M 93.3044,170.837 H 67.4012 c -6.579,0 -11.913,-5.487 -11.913,-12.258 v -25.214 c 0,-6.771 5.334,-12.258 11.913,-12.258 h 25.9032 c 6.5793,0 11.9136,5.487 11.9136,12.258 v 25.214 c 0,6.771 -5.3343,12.258 -11.9136,12.258 z"
         id="path245" />
    </clipPath>
    <clipPath
       clipPathUnits="userSpaceOnUse"
       id="clipPath247">
      <path
         d="M 93.3044,170.837 H 67.4012 c -6.579,0 -11.913,-5.487 -11.913,-12.258 v -25.214 c 0,-6.771 5.334,-12.258 11.913,-12.258 h 25.9032 c 6.5793,0 11.9136,5.487 11.9136,12.258 v 25.214 c 0,6.771 -5.3343,12.258 -11.9136,12.258 z"
         id="path247" />
    </clipPath>
    <clipPath
       clipPathUnits="userSpaceOnUse"
       id="clipPath249">
      <path
         d="M 93.3044,170.837 H 67.4012 c -6.579,0 -11.913,-5.487 -11.913,-12.258 v -25.214 c 0,-6.771 5.334,-12.258 11.913,-12.258 h 25.9032 c 6.5793,0 11.9136,5.487 11.9136,12.258 v 25.214 c 0,6.771 -5.3343,12.258 -11.9136,12.258 z"
         id="path249" />
    </clipPath>
  </defs>
  <g
     id="layer1">
    <path
       id="path64"
       d="m 67.3614,171.388 h 26.3124 c 6.6392,0 11.9822,-5.347 11.9822,-11.986 v -26.309 c 0,-6.639 -5.343,-11.986 -11.9822,-11.986 H 67.3614 c -6.6392,0 -11.9825,5.347 -11.9825,11.986 v 26.309 c 0,6.639 5.3433,11.986 11.9825,11.986 z"
       style="fill:#2b893b;fill-opacity:1;fill-rule:nonzero;stroke:none"
       transform="matrix(0.33771096,0,0,-0.3379258,-18.684402,57.922056)"
       clip-path="url(#clipPath65)" />
    <path
       id="path100"
       d="m 87.7766,146.307 c 0,-4.006 -3.2524,-7.258 -7.2586,-7.258 -4.0061,0 -7.2585,3.252 -7.2585,7.258 0,4.006 3.2524,7.259 7.2585,7.259 4.0062,0 7.2586,-3.253 7.2586,-7.259 z"
       style="fill:none;stroke:#ffffff;stroke-width:1.0495;stroke-linecap:butt;stroke-linejoin:miter;stroke-miterlimit:10;stroke-dasharray:none;stroke-opacity:1"
       transform="matrix(0.33771096,0,0,-0.3379258,-18.684402,57.922056)"
       clip-path="url(#clipPath101)" />
    <path
       id="path102"
       d="m 80.424,140.348 -0.2157,4.775 -1.5992,0.893 1.9596,6.401 0.2157,-4.774 1.5946,-0.893 z"
       style="fill:#ffffff;fill-opacity:1;fill-rule:nonzero;stroke:none"
       transform="matrix(0.33771096,0,0,-0.3379258,-18.684402,57.922056)"
       clip-path="url(#clipPath103)" />
    <path
       id="path104"
       d="m 76.6514,162.293 c 0,-1.753 -1.423,-3.176 -3.1758,-3.176 -1.7528,0 -3.1758,1.423 -3.1758,3.176 0,1.753 1.423,3.176 3.1758,3.176 1.7528,0 3.1758,-1.423 3.1758,-3.176 z"
       style="fill:#ffffff;fill-opacity:1;fill-rule:evenodd;stroke:#ffffff;stroke-width:1.5479;stroke-linecap:butt;stroke-linejoin:miter;stroke-miterlimit:10;stroke-dasharray:none;stroke-opacity:1"
       transform="matrix(0.33771096,0,0,-0.3379258,-18.684402,57.922056)"
       clip-path="url(#clipPath105)" />
    <path
       id="path106"
       d="m 97.8796,156.048 c 0,-1.751 -1.423,-3.174 -3.1758,-3.174 -1.7527,0 -3.1758,1.423 -3.1758,3.174 0,1.752 1.4231,3.174 3.1758,3.174 1.7528,0 3.1758,-1.422 3.1758,-3.174 z"
       style="fill:#ffffff;fill-opacity:1;fill-rule:evenodd;stroke:#ffffff;stroke-width:1.5479;stroke-linecap:butt;stroke-linejoin:miter;stroke-miterlimit:10;stroke-dasharray:none;stroke-opacity:1"
       transform="matrix(0.33771096,0,0,-0.3379258,-18.684402,57.922056)"
       clip-path="url(#clipPath107)" />
    <path
       id="path108"
       d="m 92.7419,132.546 c 0,-1.753 -1.423,-3.176 -3.1758,-3.176 -1.7527,0 -3.1758,1.423 -3.1758,3.176 0,1.753 1.4231,3.176 3.1758,3.176 1.7528,0 3.1758,-1.423 3.1758,-3.176 z"
       style="fill:#ffffff;fill-opacity:1;fill-rule:evenodd;stroke:#ffffff;stroke-width:1.5479;stroke-linecap:butt;stroke-linejoin:miter;stroke-miterlimit:10;stroke-dasharray:none;stroke-opacity:1"
       transform="matrix(0.33771096,0,0,-0.3379258,-18.684402,57.922056)"
       clip-path="url(#clipPath109)" />
    <path
       id="path110"
       d="m 72.6613,133.122 c 0,-2.337 -1.8972,-4.235 -4.234,-4.235 -2.3368,0 -4.2339,1.898 -4.2339,4.235 0,2.337 1.8971,4.234 4.2339,4.234 2.3368,0 4.234,-1.897 4.234,-4.234 z"
       style="fill:#ffffff;fill-opacity:1;fill-rule:evenodd;stroke:#ffffff;stroke-width:2.0639;stroke-linecap:butt;stroke-linejoin:miter;stroke-miterlimit:10;stroke-dasharray:none;stroke-opacity:1"
       transform="matrix(0.33771096,0,0,-0.3379258,-18.684402,57.922056)"
       clip-path="url(#clipPath111)" />
    <path
       id="path112"
       d="m 84.8243,139.999 2.9809,-4.505"
       style="fill:none;stroke:#ffffff;stroke-width:1.4063;stroke-linecap:butt;stroke-linejoin:miter;stroke-miterlimit:10;stroke-dasharray:none;stroke-opacity:1"
       transform="matrix(0.33771096,0,0,-0.3379258,-18.684402,57.922056)"
       clip-path="url(#clipPath113)" />
    <path
       id="path114"
       d="m 75.8624,140.658 -3.9385,-4.004"
       style="fill:none;stroke:#ffffff;stroke-width:1.4063;stroke-linecap:butt;stroke-linejoin:miter;stroke-miterlimit:10;stroke-dasharray:none;stroke-opacity:1"
       transform="matrix(0.33771096,0,0,-0.3379258,-18.684402,57.922056)"
       clip-path="url(#clipPath115)" />
    <path
       id="path116"
       d="m 66.3714,149.314 6.8125,-1.422"
       style="fill:none;stroke:#ffffff;stroke-width:1.4063;stroke-linecap:butt;stroke-linejoin:miter;stroke-miterlimit:10;stroke-dasharray:none;stroke-opacity:1"
       transform="matrix(0.33771096,0,0,-0.3379258,-18.684402,57.922056)"
       clip-path="url(#clipPath117)" />
    <path
       id="path118"
       d="m 74.808,159.107 2.4803,-6.067"
       style="fill:none;stroke:#ffffff;stroke-width:1.4063;stroke-linecap:butt;stroke-linejoin:miter;stroke-miterlimit:10;stroke-dasharray:none;stroke-opacity:1"
       transform="matrix(0.33771096,0,0,-0.3379258,-18.684402,57.922056)"
       clip-path="url(#clipPath119)" />
    <path
       id="path120"
       d="m 86.9987,150.145 c 5.1921,3.723 5.0944,3.723 5.0944,3.723"
       style="fill:none;stroke:#ffffff;stroke-width:1.4063;stroke-linecap:butt;stroke-linejoin:miter;stroke-miterlimit:10;stroke-dasharray:none;stroke-opacity:1"
       transform="matrix(0.33771096,0,0,-0.3379258,-18.684402,57.922056)"
       clip-path="url(#clipPath121)" />
    <path
       id="path122"
       d="m 66.3604,149.987 c 0,-1.461 -1.185,-2.647 -2.6445,-2.647 -1.4595,0 -2.6444,1.186 -2.6444,2.647 0,1.46 1.1849,2.646 2.6444,2.646 1.4595,0 2.6445,-1.186 2.6445,-2.646 z"
       style="fill:#ffffff;fill-opacity:1;fill-rule:evenodd;stroke:#ffffff;stroke-width:1.2899;stroke-linecap:butt;stroke-linejoin:miter;stroke-miterlimit:10;stroke-dasharray:none;stroke-opacity:1"
       transform="matrix(0.33771096,0,0,-0.3379258,-18.684402,57.922056)"
       clip-path="url(#clipPath123)" />
    <path
       id="path210"
       d="M 93.7422,170.837 H 67.839 c -6.579,0 -11.913,-5.487 -11.913,-12.258 v -25.214 c 0,-6.771 5.334,-12.258 11.913,-12.258 h 25.9032 c 6.5788,0 11.9138,5.487 11.9138,12.258 v 25.214 c 0,6.771 -5.335,12.258 -11.9138,12.258"
       style="fill:#2c8a3b;fill-opacity:1;fill-rule:nonzero;stroke:none"
       transform="matrix(0.33771096,0,0,-0.3379258,-18.684402,57.922056)"
       clip-path="url(#clipPath211)" />
    <path
       id="path212"
       d="m 108.662,129.707 c 1.779,7.651 -2.989,15.307 -10.6409,17.086 -7.6514,1.778 -15.3073,-2.99 -17.0857,-10.642 -1.7785,-7.651 2.9896,-15.307 10.641,-17.085 7.6514,-1.779 15.3076,2.989 17.0856,10.641 z m -1.596,0.371 c -1.573,-6.771 -8.348,-10.99 -15.1187,-9.417 -6.7707,1.574 -10.9899,8.349 -9.4162,15.119 1.5738,6.771 8.3484,10.991 15.1191,9.417 6.7708,-1.574 10.9898,-8.349 9.4158,-15.119 z"
       style="fill:#ffffff;fill-opacity:1;fill-rule:evenodd;stroke:none"
       transform="matrix(0.33771096,0,0,-0.3379258,-18.684402,57.922056)"
       clip-path="url(#clipPath213)" />
    <path
       id="path214"
       d="m 98.6473,159.495 c 0.8743,3.762 -1.4701,7.526 -5.232,8.4 -3.7619,0.874 -7.5259,-1.47 -8.4002,-5.232 -0.8743,-3.762 1.4701,-7.526 5.232,-8.4 3.7619,-0.874 7.5259,1.47 8.4002,5.232 z"
       style="fill:#ffffff;fill-opacity:1;fill-rule:evenodd;stroke:none"
       transform="matrix(0.33771096,0,0,-0.3379258,-18.684402,57.922056)"
       clip-path="url(#clipPath215)" />
    <path
       id="path216"
       d="m 71.201,138.943 c 3.5566,0 6.4448,-2.888 6.4448,-6.444 0,-3.557 -2.8882,-6.445 -6.4448,-6.445 -3.5574,0 -6.4446,2.888 -6.4446,6.445 0,3.556 2.8872,6.444 6.4446,6.444"
       style="fill:#ffffff;fill-opacity:1;fill-rule:evenodd;stroke:none"
       transform="matrix(0.33771096,0,0,-0.3379258,-18.684402,57.922056)"
       clip-path="url(#clipPath217)" />
    <path
       id="path218"
       d="M 73.2301,131.911 H 81.23 v 1.1519 h -7.9999 z"
       style="fill:#ffffff;fill-opacity:1;fill-rule:evenodd;stroke:none"
       transform="matrix(0.33771096,0,0,-0.3379258,-18.684402,57.922056)"
       clip-path="url(#clipPath219)" />
    <path
       id="path220"
       d="m 92.2243,154.411 1.3168,-8.175 1.1372,0.183 -1.3167,8.175 z"
       style="fill:#ffffff;fill-opacity:1;fill-rule:evenodd;stroke:none"
       transform="matrix(0.33771096,0,0,-0.3379258,-18.684402,57.922056)"
       clip-path="url(#clipPath221)" />
    <path
       id="path222"
       d="m 69.779,165.686 c -2.1558,0.465 -3.9889,-0.011 -5.2685,-0.806 -0.7009,-0.429 -1.3523,-0.903 -1.9633,-1.69 -3.237,-4.147 -1.1754,-10.291 4.0054,-11.462 3.6328,-0.83 7.6856,1.318 8.5874,5.405 0.8013,3.576 -1.299,7.688 -5.361,8.553"
       style="fill:#2c8a3b;fill-opacity:1;fill-rule:evenodd;stroke:none"
       transform="matrix(0.33771096,0,0,-0.3379258,-18.684402,57.922056)"
       clip-path="url(#clipPath223)" />
    <path
       id="path224"
       d="m 85.0587,143.471 c -1.0409,0.921 -3.1022,2.799 -6.9822,6.395 -0.2332,0.216 -0.5979,0.202 -0.8139,-0.031 -0.2161,-0.233 -0.2022,-0.598 0.0309,-0.814 5.5978,-5.188 7.4489,-6.831 7.8993,-7.179 0.3002,-0.232 0.514,-0.197 0.5558,-0.19 0.17,0.025 0.2862,0.109 0.369,0.214 0.0812,0.103 0.1545,0.254 0.1137,0.468 -0.0091,0.048 -0.0347,0.15 -0.1226,0.269 -0.1174,0.159 -0.6526,0.7 -0.6526,0.7 -0.1099,0.109 -0.2533,0.166 -0.3974,0.168 z"
       style="fill:#ffffff;fill-opacity:1;fill-rule:evenodd;stroke:none"
       transform="matrix(0.33771096,0,0,-0.3379258,-18.684402,57.922056)"
       clip-path="url(#clipPath225)" />
    <path
       id="path226"
       d="m 68.3915,154.763 c 0,0.769 0.6389,1.407 1.4064,1.407 1.2615,0 1.8398,-1.517 1.019,-2.387 -0.4922,-0.523 -1.453,-0.554 -1.9993,-0.039 -0.2106,0.199 -0.4261,0.622 -0.4261,1.019 z m -2.8529,-0.038 c 0,-1.466 0.7339,-2.62 1.8364,-3.45 0.6258,-0.472 1.6251,-0.771 2.4229,-0.771 1.1409,0 2.2009,0.469 2.9766,1.245 1.0541,1.055 1.4688,2.373 1.173,3.855 -0.2679,1.345 -1.0878,2.445 -2.3237,3 -1.6212,0.727 -3.5877,0.424 -4.8778,-0.865 -0.7602,-0.759 -1.2074,-1.939 -1.2074,-3.014"
       style="fill:#ffffff;fill-opacity:1;fill-rule:evenodd;stroke:none"
       transform="matrix(0.33771096,0,0,-0.3379258,-18.684402,57.922056)"
       clip-path="url(#clipPath227)" />
    <path
       id="path228"
       d="m 63.1803,160.886 c 0,-0.348 0.1351,-0.646 0.5709,-0.646 0.3506,0 0.6922,0.463 1.1673,0.848 1.1755,0.956 3.0447,1.624 4.5378,1.624 1.6562,0 2.5204,-0.153 3.9432,-0.811 l 1.5243,-1.024 c 0.3843,-0.342 0.5817,-0.637 0.9216,-0.637 0.4358,0 0.57,0.298 0.57,0.646 0,0.342 -0.8969,1.025 -1.1679,1.228 -0.4909,0.368 -0.9257,0.623 -1.4934,0.903 -2.6521,1.306 -6.1578,1.105 -8.6554,-0.398 -0.281,-0.168 -0.4735,-0.309 -0.7315,-0.485 -0.3022,-0.205 -1.1869,-0.933 -1.1869,-1.248"
       style="fill:#ffffff;fill-opacity:1;fill-rule:evenodd;stroke:none"
       transform="matrix(0.33771096,0,0,-0.3379258,-18.684402,57.922056)"
       clip-path="url(#clipPath229)" />
    <path
       id="path230"
       d="m 63.1803,148.792 c 0,-0.45 0.1525,-0.472 0.5045,-0.827 1.4229,-1.436 3.9254,-2.33 6.1131,-2.33 2.0453,0 3.9694,0.665 5.4282,1.761 0.2761,0.207 1.1893,0.898 1.1893,1.245 0,0.348 -0.1342,0.646 -0.57,0.646 -0.3367,0 -0.4621,-0.213 -0.6374,-0.39 -1.222,-1.238 -3.3632,-2.082 -5.1431,-2.082 -0.9738,0 -1.385,0.01 -2.3361,0.25 -1.0123,0.255 -1.9345,0.72 -2.766,1.341 -0.1172,0.088 -0.163,0.125 -0.2702,0.225 -0.1082,0.1 -0.1747,0.134 -0.2862,0.246 -0.2488,0.253 -0.3046,0.41 -0.7313,0.41 -0.2334,0 -0.4948,-0.261 -0.4948,-0.495"
       style="fill:#ffffff;fill-opacity:1;fill-rule:evenodd;stroke:none"
       transform="matrix(0.33771096,0,0,-0.3379258,-18.684402,57.922056)"
       clip-path="url(#clipPath231)" />
    <path
       id="path232"
       d="m 65.3863,150.086 c 0,-0.472 0.2424,-0.592 0.7683,-0.944 2.0976,-1.402 5.1669,-1.423 7.2647,-0.015 0.538,0.361 0.7903,0.48 0.7903,0.959 0,0.308 -0.2767,0.493 -0.6464,0.493 -0.4249,0 -1.1704,-1.331 -3.9553,-1.331 -0.6429,0 -1.5563,0.221 -2.0028,0.431 l -0.7952,0.422 c -0.4293,0.262 -0.4521,0.478 -0.9291,0.478 -0.2333,0 -0.4945,-0.26 -0.4945,-0.493"
       style="fill:#ffffff;fill-opacity:1;fill-rule:evenodd;stroke:none"
       transform="matrix(0.33771096,0,0,-0.3379258,-18.684402,57.922056)"
       clip-path="url(#clipPath233)" />
    <path
       id="path234"
       d="m 65.3863,159.594 c 0,-0.454 0.1932,-0.648 0.6471,-0.648 0.2013,0 0.5831,0.351 0.7528,0.465 1.4102,0.953 3.662,1.16 5.206,0.437 0.281,-0.132 0.5357,-0.264 0.7946,-0.422 0.4293,-0.262 0.452,-0.48 0.929,-0.48 0.3824,0 0.8017,0.645 0.1909,1.104 -0.4802,0.361 -0.9002,0.643 -1.4844,0.875 -2.3721,0.942 -4.7148,0.623 -6.71,-0.859 -0.1384,-0.102 -0.326,-0.257 -0.326,-0.472"
       style="fill:#ffffff;fill-opacity:1;fill-rule:evenodd;stroke:none"
       transform="matrix(0.33771096,0,0,-0.3379258,-18.684402,57.922056)"
       clip-path="url(#clipPath235)" />
    <path
       id="path236"
       d="m 74.3438,157.273 c 0,-0.881 0.6711,-1.522 1.5975,-1.445 v -3.118 c 0,-0.615 0.0056,-0.914 0.2816,-1.279 0.5586,-0.738 1.6941,-0.705 2.2181,-0.08 0.2187,0.26 0.3532,0.627 0.3532,1.093 v 3.384 c 0.4529,0 0.8337,0.053 1.1705,0.388 0.244,0.244 0.3686,0.57 0.3881,0.902 v 0.188 c -0.0392,0.681 -0.5094,1.337 -1.2925,1.337 h -3.3854 c -0.7092,0 -1.3311,-0.657 -1.3311,-1.37"
       style="fill:#ffffff;fill-opacity:1;fill-rule:evenodd;stroke:none"
       transform="matrix(0.33771096,0,0,-0.3379258,-18.684402,57.922056)"
       clip-path="url(#clipPath237)" />
    <path
       id="path238"
       d="m 61.4577,157.294 v -5.097 c 0,-0.697 0.6308,-1.331 1.3311,-1.331 0.5071,0 0.9109,0.135 1.1967,0.515 0.2466,0.33 0.3244,0.644 0.3244,1.197 v 4.335 c 0,0.553 -0.0778,0.867 -0.3244,1.196 -0.7323,0.977 -2.5278,0.5 -2.5278,-0.815"
       style="fill:#ffffff;fill-opacity:1;fill-rule:evenodd;stroke:none"
       transform="matrix(0.33771096,0,0,-0.3379258,-18.684402,57.922056)"
       clip-path="url(#clipPath239)" />
    <path
       id="path240"
       d="m 67.7126,132.942 c -0.1173,0.678 0.9556,0.829 1.0295,0.161 0.0787,-0.712 -0.9174,-0.809 -1.0295,-0.161 z m 7.6807,0.136 v -0.571 c -0.0181,-0.118 -0.0664,-0.226 -0.1803,-0.319 -0.1819,-0.148 -0.4169,-0.239 -0.6365,-0.314 -1.6971,-0.577 -5.0719,-0.571 -6.7763,0.008 -0.6209,0.211 -0.7642,0.388 -0.792,0.661 v 2.309 c 0.0015,0.013 0.0032,0.023 0.0055,0.031 0.2319,-0.343 0.3571,-0.389 0.7488,-0.533 0.9763,-0.357 2.4375,-0.443 3.455,-0.443 0.9419,0 3.6671,0.071 4.1758,0.983 v -0.06 c 0,-0.584 -9e-4,-1.168 0,-1.752"
       style="fill:#2c8a3b;fill-opacity:1;fill-rule:evenodd;stroke:none"
       transform="matrix(0.33771096,0,0,-0.3379258,-18.684402,57.922056)"
       clip-path="url(#clipPath241)" />
    <path
       id="path242"
       d="m 67.7126,129.797 c -0.1173,0.679 0.9556,0.83 1.0295,0.161 0.0787,-0.711 -0.9174,-0.808 -1.0295,-0.161 z m 7.6807,0.137 v -0.505 c -0.0206,-0.303 -0.1483,-0.472 -0.8168,-0.699 -0.7427,-0.253 -1.8076,-0.393 -2.9126,-0.424 H 70.767 c -1.123,0.031 -2.2099,0.175 -2.9668,0.432 -0.6209,0.21 -0.7642,0.387 -0.792,0.66 v 2.309 c 0.0015,0.013 0.0032,0.024 0.0055,0.031 0.2319,-0.342 0.3571,-0.388 0.7488,-0.532 0.326,-0.119 0.6929,-0.197 1.0344,-0.259 0.802,-0.145 1.6072,-0.184 2.4206,-0.184 0.9419,0 3.6671,0.071 4.1758,0.983 v -0.06 c 0,-0.584 -9e-4,-1.168 0,-1.752"
       style="fill:#2c8a3b;fill-opacity:1;fill-rule:evenodd;stroke:none"
       transform="matrix(0.33771096,0,0,-0.3379258,-18.684402,57.922056)"
       clip-path="url(#clipPath243)" />
    <path
       id="path244"
       d="m 70.5295,136.675 c -0.8078,-0.04 -1.5369,-0.094 -2.3263,-0.294 -0.3253,-0.083 -1.1134,-0.333 -1.195,-0.682 v -0.117 c 0.0245,-0.103 0.1137,-0.214 0.2948,-0.331 0.9337,-0.601 3.4728,-0.706 4.5778,-0.648 0.7922,0.041 1.545,0.111 2.3182,0.303 0.3253,0.081 1.1156,0.335 1.1943,0.685 v 0.113 c -0.023,0.104 -0.113,0.216 -0.2949,0.332 -0.9691,0.62 -3.4305,0.696 -4.5689,0.639"
       style="fill:#2c8a3b;fill-opacity:1;fill-rule:evenodd;stroke:none"
       transform="matrix(0.33771096,0,0,-0.3379258,-18.684402,57.922056)"
       clip-path="url(#clipPath245)" />
    <path
       id="path246"
       d="m 89.1927,124.986 v 2.052 h 7.1093 c 0.9891,0 1.4837,0.532 1.4837,1.596 0,1.107 -0.4323,1.737 -1.2979,1.889 l -3.4617,0.587 c -2.5556,0.455 -3.8334,1.987 -3.8334,4.592 0,3.409 1.628,5.114 4.8838,5.114 h 4.9151 l 1.6074,-1.27 v -2.02 h -6.3676 c -0.9684,0 -1.4526,-0.543 -1.4526,-1.629 0,-1.02 0.422,-1.606 1.2675,-1.758 l 3.4921,-0.619 c 2.5346,-0.435 3.8026,-1.998 3.8026,-4.691 0,-3.409 -1.618,-5.114 -4.8532,-5.114 h -5.6569 z"
       style="fill:#ffffff;fill-opacity:1;fill-rule:nonzero;stroke:none"
       transform="matrix(0.33771096,0,0,-0.3379258,-18.684402,57.922056)"
       clip-path="url(#clipPath247)" />
    <path
       id="path248"
       d="m 92.9936,155.362 0.1802,0.074 0.0196,0.029 c 0.1349,0.193 0.1104,0.313 0.1652,0.606 0.1179,0.635 0.2069,1.272 0.3313,1.917 0.16,0.814 0.2877,1.724 0.4451,2.561 l 0.3313,1.918 c 0.036,0.194 0.0864,0.446 0.108,0.641 0.0281,0.282 -0.2113,0.454 -0.4597,0.366 -0.2722,-0.098 -0.5615,-0.231 -0.8289,-0.341 -0.5497,-0.227 -1.1046,-0.465 -1.6549,-0.682 -0.0707,0.368 -0.1072,0.764 -0.1667,1.147 l -0.3355,2.3 c -0.0218,0.181 -0.0464,0.402 -0.0824,0.584 -0.063,0.315 -0.2647,0.284 -0.3791,0.315 l -0.1802,-0.074 c -0.0017,-0.005 -0.0107,-0.009 -0.0084,-0.015 l -0.0806,-0.127 -1.0898,-6.235 c -0.0695,-0.429 -0.1591,-0.859 -0.2176,-1.28 -0.0407,-0.277 0.1946,-0.464 0.4363,-0.386 0.2538,0.084 0.5718,0.232 0.8273,0.337 0.5586,0.23 1.1165,0.47 1.6759,0.69 0.104,-0.568 0.2447,-1.669 0.3343,-2.296 l 0.2459,-1.715 c 0.0602,-0.334 0.2721,-0.303 0.3834,-0.334"
       style="fill:#2c8a3b;fill-opacity:1;fill-rule:evenodd;stroke:none"
       transform="matrix(0.33771096,0,0,-0.3379258,-18.684402,57.922056)"
       clip-path="url(#clipPath249)" />
  </g>
</svg>
